# xmcd
#
# Track frame offsets: 
#        182
#        18917
#        32815
#        47187
#        64435
#        79460
#        93272
#        108912
#        122192
#        137987
#        149777
#        169037
#        182642
#        199330
#
# Disc length: 2873 seconds
#
# Revision: 4
# Processed by: cddbd v1.5.2PL0 Copyright (c) Steve Scherf et al.
# Submitted via: ExactAudioCopyFreeDBPlugin 1.0
#
DISCID=d40b370e
DTITLE=Truck Stop - COWBOY ALARM
DYEAR=2001
DGENRE=Country
TTITLE0=Die Freiheit ist noch weit
TTITLE1=Bitte erlöse uns, Elvis
TTITLE2=Waterkant
TTITLE3=Eine Gitarre und eine Ukulele
TTITLE4=On The Road
TTITLE5=Ein alter Schuhkarton
TTITLE6=Sorry, Honey
TTITLE7=Frag mich was Leichteres
TTITLE8=Radieschen
TTITLE9=Das Nudelholz
TTITLE10=Du machst was verkehrt
TTITLE11=Zur rechten Zeit
TTITLE12=Schnee von gestern
TTITLE13=Rauhe Hände
EXTD=YEAR: 2001 ID3G:   2
EXTT0=
EXTT1=
EXTT2=
EXTT3=
EXTT4=
EXTT5=
EXTT6=
EXTT7=
EXTT8=
EXTT9=
EXTT10=
EXTT11=
EXTT12=
EXTT13=
PLAYORDER=
